CATALOG 0000000000000
FILE "Fuenfte Dimension, Die (1996)(Eidos)(DE)(Disc 1 of 2)(Track 1 of 3).iso" BINARY
  TRACK 01 MODE2/2336
    INDEX 01 00:00:00
FILE "Fuenfte Dimension, Die (1996)(Eidos)(DE)(Disc 1 of 2)(Track 2 of 3).iso" BINARY
  TRACK 02 MODE2/2336
    PREGAP 00:02:00
    INDEX 01 00:00:00
FILE "Fuenfte Dimension, Die (1996)(Eidos)(DE)(Disc 1 of 2)(Track 3 of 3).iso" BINARY
  TRACK 03 MODE2/2336
    PREGAP 00:02:00
    INDEX 01 00:00:00
